<svg xmlns="http://www.w3.org/2000/svg" width="50" height="47.41" viewBox="0 0 50 47.41">
  <g id="Group_11021" data-name="Group 11021" transform="translate(-8647 -2717.712)">
    <path id="Path_18740" data-name="Path 18740" d="M27.511,36.927c-3.3.067-6.592.17-9.888.191-5,.033-10,.009-15.006.008A2.407,2.407,0,0,1,0,34.517Q0,18.547,0,2.575A2.363,2.363,0,0,1,2.575,0Q9.621,0,16.667.009c0,4.459,0,8.917,0,13.48L21.149,9.6l4.459,3.871V.006q7.118,0,14.237,0a2.312,2.312,0,0,1,2.433,2.481q.006,10.742,0,21.485c0,.251.011.5.017.751q0,3.039,0,6.078-.008,1.351-.016,2.7h-7.19c0-.816-.005-1.582,0-2.349a1.02,1.02,0,0,0-.616-1.038,1.031,1.031,0,0,0-1.229.247q-2.686,2.673-5.372,5.345a1.206,1.206,0,0,0-.363,1.22" transform="translate(8647 2717.711)" fill="#e80fab"/>
    <path id="Path_18742" data-name="Path 18742" d="M124.954.034V13.5l-4.459-3.871-4.483,3.892c0-4.563,0-9.021,0-13.48l8.942,0" transform="translate(8547.654 2717.683)" fill="#fff"/>
    <rect id="Rectangle_4518" data-name="Rectangle 4518" width="49.957" height="43.086" transform="translate(8647 2717.712)" fill="none"/>
    <g id="Group_11095" data-name="Group 11095" transform="translate(715.043 114.166)">
      <circle id="Ellipse_788" data-name="Ellipse 788" cx="14" cy="14" r="14" transform="translate(7953.957 2622.957)" fill="#fad119"/>
      <path id="Path_18797" data-name="Path 18797" d="M11.148,16.577c.149-.187.305-.369.448-.561A6.635,6.635,0,0,0,7.281,5.509a8.88,8.88,0,0,0-1.193-.073.487.487,0,0,0-.547.551c-.006.621,0,1.242,0,1.928L0,3.958,5.539,0V.979c0,.307,0,.614,0,.921.005.4.181.568.582.585A22.705,22.705,0,0,1,8.6,2.617a7.55,7.55,0,0,1,6.217,6.624A7.485,7.485,0,0,1,11.5,16.413c-.1.075-.216.137-.324.2l-.031-.041" transform="translate(7960.528 2630.043)" fill="#fff"/>
    </g>
  </g>
</svg>
