<svg xmlns="http://www.w3.org/2000/svg" width="33.854" height="33.836" viewBox="0 0 33.854 33.836">
  <g id="Group_11019" data-name="Group 11019" transform="translate(-8609 -2357)">
    <path id="Path_18737" data-name="Path 18737" d="M14.417,240.832c-.072-.19-.112-.29-.148-.39q-1.471-4.1-2.943-8.194c-.216-.6-.551-.788-1.142-.621a34.461,34.461,0,0,0-6.436,2.529,6.885,6.885,0,0,0-2.3,1.943A7.651,7.651,0,0,0,.05,241.721a2.919,2.919,0,0,0,.278,1.008A3.033,3.033,0,0,0,3.26,244.5q5.213,0,10.426,0h6.581q5.161,0,10.321,0a3.148,3.148,0,0,0,2.664-1.267,3.584,3.584,0,0,0,.6-1.51v-2.049c-.021-.095-.047-.189-.062-.284a6.819,6.819,0,0,0-3.5-5.127,28.711,28.711,0,0,0-4.967-2.125c-.583-.2-1.173-.375-1.768-.532a.748.748,0,0,0-.958.482c-.045.1-.079.2-.116.308q-1.448,4.035-2.9,8.071c-.033.091-.073.18-.133.326" transform="translate(8609 2146.338)" fill="#e80fab"/>
    <path id="Path_18738" data-name="Path 18738" d="M159.207,231.71c-.038-.132-.06-.194-.073-.258-.217-1.09-.4-2.188-.66-3.267a3.812,3.812,0,0,1,.141-2.4c.4-1.02.7-2.081,1.046-3.126.245-.752-.071-1.191-.859-1.2-.242,0-.485,0-.727,0q-1.768,0-3.536,0a.874.874,0,0,0-.745.279.862.862,0,0,0-.1.882c.447,1.349.9,2.7,1.329,4.05a1.257,1.257,0,0,1,.032.582c-.15.842-.322,1.681-.489,2.52-.125.629-.253,1.257-.4,1.975" transform="translate(8469.251 2155.53)" fill="#fad119"/>
    <path id="Path_18739" data-name="Path 18739" d="M95.205,0c.508.09,1.026.14,1.521.275a8.922,8.922,0,0,1,6.834,7.077,9.218,9.218,0,0,1-17.822,4.626A9.239,9.239,0,0,1,92.844.164C93.189.1,93.537.054,93.883,0Z" transform="translate(8531.39 2357)" fill="#ffeccd"/>
  </g>
</svg>
