<svg id="instagram" xmlns="http://www.w3.org/2000/svg" width="14.475" height="14.475" viewBox="0 0 14.475 14.475">
  <path id="Path_3" data-name="Path 3" d="M7.238,1.287a22.192,22.192,0,0,1,2.9.08,3.73,3.73,0,0,1,1.367.241,2.824,2.824,0,0,1,1.367,1.367,3.73,3.73,0,0,1,.241,1.367c0,.724.08.965.08,2.9a22.192,22.192,0,0,1-.08,2.9,3.73,3.73,0,0,1-.241,1.367A2.824,2.824,0,0,1,11.5,12.867a3.73,3.73,0,0,1-1.367.241c-.724,0-.965.08-2.9.08a22.192,22.192,0,0,1-2.9-.08,3.73,3.73,0,0,1-1.367-.241A2.824,2.824,0,0,1,1.608,11.5a3.73,3.73,0,0,1-.241-1.367c0-.724-.08-.965-.08-2.9a22.192,22.192,0,0,1,.08-2.9,3.73,3.73,0,0,1,.241-1.367,2.888,2.888,0,0,1,.563-.8,1.36,1.36,0,0,1,.8-.563,3.73,3.73,0,0,1,1.367-.241,22.192,22.192,0,0,1,2.9-.08M7.238,0A23.761,23.761,0,0,0,4.262.08,4.965,4.965,0,0,0,2.493.4a3.148,3.148,0,0,0-1.287.8A3.148,3.148,0,0,0,.4,2.493,3.664,3.664,0,0,0,.08,4.262,23.761,23.761,0,0,0,0,7.238a23.761,23.761,0,0,0,.08,2.975A4.965,4.965,0,0,0,.4,11.982a3.148,3.148,0,0,0,.8,1.287,3.148,3.148,0,0,0,1.287.8,4.965,4.965,0,0,0,1.769.322,23.761,23.761,0,0,0,2.975.08,23.761,23.761,0,0,0,2.975-.08,4.965,4.965,0,0,0,1.769-.322,3.374,3.374,0,0,0,2.091-2.091,4.965,4.965,0,0,0,.322-1.769c0-.8.08-1.045.08-2.975a23.761,23.761,0,0,0-.08-2.975,4.965,4.965,0,0,0-.322-1.769,3.148,3.148,0,0,0-.8-1.287A3.148,3.148,0,0,0,11.982.4,4.965,4.965,0,0,0,10.213.08,23.761,23.761,0,0,0,7.238,0m0,3.538a3.64,3.64,0,0,0-3.7,3.7,3.7,3.7,0,1,0,3.7-3.7m0,6.112A2.369,2.369,0,0,1,4.825,7.238,2.369,2.369,0,0,1,7.238,4.825,2.369,2.369,0,0,1,9.65,7.238,2.369,2.369,0,0,1,7.238,9.65M11.1,2.493a.885.885,0,1,0,.885.885.892.892,0,0,0-.885-.885" fill="#fff" fill-rule="evenodd"/>
</svg>
